<svg width="340" height="294" viewBox="0 0 340 294" fill="none" xmlns="http://www.w3.org/2000/svg">
<path d="M338.248 280.252H12.9375V293.61H338.248V280.252Z" fill="#8BD042"/>
<path opacity="0.5" d="M338 280H-25V294H338V280Z" fill="white"/>
<path d="M89.6526 136.584C87.9343 137.077 86.2076 137.895 84.9731 138.404C85.8072 137.787 86.633 137.16 87.4421 136.509C91.1874 133.545 94.6824 130.289 98.0439 126.908C94.0985 130.698 89.9362 134.272 85.4986 137.453C86.0408 136.476 86.658 135.324 87.1001 134.163C87.8925 132.084 88.0844 129.997 86.0992 128.878C83.6635 127.509 80.7023 129.555 81.4864 133.078C82.0453 135.574 83.4133 137.478 84.1723 138.379C81.2862 140.366 78.2917 142.186 75.1721 143.773C75.072 143.823 74.9719 143.873 74.8718 143.923C75.439 142.888 76.1313 141.644 76.6151 140.383C77.4075 138.304 77.5994 136.217 75.6141 135.098C73.1785 133.729 70.2173 135.774 71.0014 139.298C71.5436 141.736 72.8782 143.622 73.6373 144.541C69.892 146.386 66.0216 147.955 62.168 149.65C61.9761 149.734 61.7926 149.817 61.6007 149.901C62.2931 149.133 63.0688 148.256 63.6944 147.329C64.9456 145.493 65.6213 143.506 63.953 141.961C61.901 140.057 58.5478 141.36 58.4894 144.967C58.4477 147.488 59.3152 149.634 59.8491 150.702C56.2873 152.397 52.8174 154.367 49.6393 156.764C49.6059 156.789 49.5726 156.814 49.5392 156.839C49.9563 156.162 50.3817 155.444 50.7153 154.718C51.6579 152.706 52.0082 150.635 50.1148 149.375C48.3881 148.223 46.2444 148.932 45.4603 150.819C45.2268 150.452 44.9015 150.126 44.4594 149.867C42.5492 148.765 40.6724 149.959 39.0709 151.646C38.6538 152.088 38.2534 152.556 37.8781 153.032C39.1293 149.584 40.6724 146.252 42.5409 143.088C43.717 143.606 45.7523 144.299 48.1462 144.29C51.9499 144.282 53.5514 141.118 51.6913 139.147C50.1732 137.544 48.0378 138.162 46.0192 139.323C45.3519 139.707 44.7013 140.149 44.0923 140.592C46.0275 137.686 48.213 134.94 50.657 132.427C51.6079 133.195 53.5264 134.53 56.0705 135.157C59.7657 136.067 62.0845 133.387 60.7499 131.024C59.6656 129.104 57.4384 129.179 55.203 129.822C54.1353 130.131 53.0592 130.565 52.1 130.965C53.1093 129.989 54.152 129.037 55.2113 128.11C56.6043 126.925 58.0307 125.772 59.4904 124.662C60.4663 125.439 62.3431 126.716 64.8205 127.325C68.5157 128.235 70.8346 125.555 69.5 123.193C68.4156 121.272 66.1885 121.348 63.953 121.99C63.4275 122.141 62.9103 122.324 62.3932 122.516C64.32 121.139 66.2802 119.795 68.2404 118.459C68.8493 118.041 69.4499 117.632 70.0588 117.215C70.918 117.941 72.9366 119.427 75.6642 120.104C79.3594 121.014 81.6783 118.334 80.3437 115.971C79.2593 114.051 77.0322 114.126 74.7967 114.769C73.9209 115.019 73.0367 115.361 72.2192 115.695C72.5946 115.428 72.9699 115.161 73.337 114.886C74.021 114.385 74.7049 113.884 75.3806 113.366C76.2231 112.74 77.0071 112.039 77.8162 111.379C78.2834 111.003 78.7255 110.611 79.1675 110.218C80.01 110.936 82.0453 112.456 84.8063 113.132C88.5015 114.042 90.8203 111.362 89.4857 109C88.4014 107.079 86.1742 107.154 83.9388 107.797C82.6625 108.165 81.3863 108.707 80.302 109.175C81.8117 107.772 83.2715 106.311 84.6478 104.792C84.7395 104.692 84.8313 104.583 84.923 104.474C85.5153 103.815 86.1075 103.147 86.6747 102.454C87.3337 101.661 87.976 100.843 88.5932 100.016C91.0539 96.6432 93.2977 93.0698 94.7991 89.1709C93.2226 93.0448 90.9121 96.5597 88.3847 99.8575C85.8239 103.147 82.9378 106.161 79.8265 108.916C79.7181 109.016 79.5929 109.108 79.4845 109.208C80.0767 108.123 80.8608 106.754 81.3863 105.376C82.1787 103.297 82.3706 101.21 80.3854 100.091C77.9497 98.722 74.9885 100.768 75.7726 104.291C76.3982 107.088 78.0415 109.141 78.7004 109.876C78.4585 110.085 78.2083 110.302 77.9664 110.511C77.6744 110.753 77.3825 110.995 77.0906 111.229C76.5984 111.621 76.1063 111.997 75.6058 112.372C75.3389 112.573 75.072 112.782 74.805 112.982C74.096 113.508 73.3703 114.017 72.6446 114.527C72.3026 114.769 71.9523 114.994 71.6103 115.236C71.2183 115.503 70.8262 115.77 70.4258 116.038C71.0014 114.977 71.7438 113.675 72.2443 112.356C73.0367 110.277 73.2285 108.19 71.2433 107.079C68.8076 105.71 65.8465 107.756 66.6306 111.279C67.2144 113.892 68.6992 115.862 69.4249 116.706C69.1329 116.898 68.841 117.09 68.5491 117.282C67.4647 117.991 66.3803 118.701 65.2959 119.411C65.0874 119.553 64.8705 119.686 64.662 119.828C64.0531 120.229 63.4525 120.63 62.8519 121.039C62.5934 121.214 62.3264 121.389 62.0679 121.565C61.2254 122.141 60.3829 122.725 59.5488 123.326C60.1327 122.258 60.8917 120.922 61.4006 119.586C62.193 117.507 62.3848 115.42 60.3996 114.301C57.9639 112.932 55.0028 114.977 55.7869 118.501C56.3874 121.189 57.9389 123.193 58.6396 123.994C57.2216 125.038 55.8286 126.106 54.4606 127.225C53.468 128.06 52.492 128.912 51.5328 129.797C51.9332 129.045 52.3336 128.227 52.6505 127.417C53.443 125.338 53.6348 123.251 51.6496 122.141C49.2139 120.771 46.2527 122.817 47.0368 126.34C47.579 128.778 48.9136 130.665 49.6727 131.583C46.9701 134.263 44.5428 137.219 42.4074 140.375C42.6326 139.49 42.8495 138.538 42.9579 137.603C43.2248 135.399 42.9079 133.328 40.7141 132.719C38.0199 131.976 35.6426 134.681 37.2525 137.912C38.3869 140.183 40.1636 141.694 41.1228 142.395C39.0125 145.818 37.2775 149.458 35.8845 153.224C35.8428 152.447 35.7844 151.637 35.6509 150.861C35.2839 148.674 34.3914 146.77 32.1142 146.812C29.3199 146.862 27.8018 150.135 30.2625 152.773C31.8556 154.484 33.7825 155.419 34.9586 155.87C34.0077 158.792 33.2403 161.773 32.6397 164.779C32.548 165.254 32.4646 165.73 32.3811 166.206C32.2811 166.29 32.181 166.39 32.0892 166.49C31.9891 166.073 31.8723 165.664 31.7389 165.263C31.0382 163.15 29.8621 161.414 27.6266 161.806C24.874 162.291 23.8814 165.755 26.7174 167.985C28.4357 169.337 30.3542 169.972 31.5971 170.264C31.6304 170.339 31.6638 170.422 31.6972 170.498C31.3885 172.768 31.1633 175.039 31.0215 177.327C30.9131 179.038 30.8547 180.75 30.8213 182.462C28.4357 182.462 26.7508 185.075 28.394 187.922C29.1614 189.241 30.1373 190.268 31.0215 191.027C31.2217 194.242 31.5387 197.456 31.9641 200.645C31.3218 200.044 30.4126 199.785 29.4116 200.053C27.9102 200.462 27.2346 201.664 26.9927 203.158C26.4672 203.734 26.1919 204.461 26.2002 205.212C25.0825 203.551 24.0232 201.839 23.0055 200.111C24.0065 199.335 25.6414 197.849 26.8092 195.669C28.6025 192.313 26.5839 189.399 23.9648 190.109C21.8377 190.685 21.3623 192.864 21.429 195.194C21.454 196.079 21.5625 196.98 21.6793 197.832C21.3122 197.189 20.9452 196.538 20.5782 195.887C19.6607 194.242 18.8682 192.547 18.0091 190.877C17.7922 190.468 17.6004 190.051 17.4168 189.633C18.5513 189.057 20.4281 187.905 21.9795 185.985C24.3735 183.021 22.9305 179.781 20.2279 179.99C18.0258 180.157 17.1583 182.211 16.7829 184.507C16.6244 185.517 16.5577 186.569 16.516 187.538L15.7319 185.718C14.0553 181.618 12.704 177.385 11.6196 173.086C12.7123 172.702 14.9645 171.733 16.908 169.771C19.5856 167.066 18.4762 163.693 15.7653 163.626C13.5632 163.576 12.4871 165.522 11.8866 167.776C11.5612 169.003 11.3777 170.314 11.2193 171.449C10.6354 168.978 10.1349 166.482 9.72616 163.977C9.43421 162.416 9.25905 160.846 9.05886 159.277C10.0765 159.085 12.6206 158.45 14.9562 156.63C17.959 154.292 17.2917 150.811 14.6142 150.393C12.4371 150.059 11.1192 151.846 10.235 154.008C9.65943 155.419 9.25905 156.972 8.93374 158.2C8.76691 156.38 8.57506 154.551 8.49165 152.723C8.29146 148.949 8.23307 145.159 8.53335 141.385C8.10795 145.15 8.0579 148.949 8.14131 152.739C8.16634 154.484 8.29146 156.229 8.39989 157.966C7.94946 156.906 7.41562 155.636 6.74831 154.518C5.6139 152.606 4.09578 151.161 1.98543 152.03C-0.600377 153.098 -0.825593 156.688 2.41918 158.258C4.92157 159.46 7.47401 159.477 8.52501 159.419C8.67516 160.971 8.80028 162.533 9.04217 164.077C9.36748 166.532 9.78455 168.986 10.2767 171.416C9.75953 170.539 9.16729 169.579 8.49999 168.736C7.12367 166.991 5.43039 165.755 3.46184 166.882C1.03452 168.277 1.27642 171.867 4.69635 173.002C7.17372 173.82 9.55933 173.595 10.6938 173.403C11.653 177.744 12.8792 182.036 14.439 186.21L14.9395 187.462C14.4974 186.886 14.0219 186.302 13.5131 185.784C11.97 184.19 10.1599 183.129 8.30814 184.449C6.03096 186.077 6.63154 189.625 10.1516 190.41C12.6039 190.952 14.8727 190.543 16.0322 190.243C16.199 190.677 16.3825 191.103 16.5911 191.512C17.4085 193.232 18.1676 194.993 19.0434 196.68C19.2936 197.164 19.5522 197.64 19.8025 198.124C19.3687 197.748 18.9183 197.381 18.4512 197.055C16.6328 195.778 14.6642 195.068 13.0877 196.721C11.1525 198.75 12.4121 202.123 16.0155 202.232C18.276 202.298 20.2529 201.631 21.4123 201.121C22.4383 202.991 23.506 204.837 24.6571 206.648C25.0825 207.341 25.5246 208.026 25.975 208.71C25.3327 208.126 24.6321 207.517 23.9064 207.007C22.088 205.73 20.1194 205.029 18.5429 206.673C16.6077 208.702 17.8673 212.075 21.4707 212.184C24.1399 212.267 26.4171 211.315 27.4097 210.814C28.002 211.658 28.6192 212.484 29.2615 213.294C27.9186 214.855 28.3523 217.493 31.0799 218.662C32.5813 219.305 34.0828 219.531 35.2839 219.589C35.4508 219.723 35.6259 219.856 35.8011 219.981L35.8928 220.048C37.6028 226.502 39.6715 232.855 42.0154 239.1C43.0163 241.764 44.0923 244.394 45.2017 247.024H35.2005V286.539H65.7881V247.024H49.3974C48.0044 243.976 46.6615 240.895 45.4103 237.781C43.3667 232.672 41.5149 227.479 39.905 222.211C39.9134 222.211 39.9217 222.211 39.9384 222.219C40.2303 222.286 40.4806 222.378 40.7975 222.419C41.1312 222.461 41.3397 222.52 41.9236 222.469L41.4899 219.723C41.4899 219.723 41.5232 219.723 41.5399 219.723H41.5065H41.4231L41.1896 219.698C41.0394 219.698 40.8392 219.622 40.6641 219.589C40.2971 219.472 39.9217 219.364 39.538 219.172L39.1042 218.971C40.3221 218.537 41.9737 217.777 43.5085 216.467C46.4029 213.995 45.5854 210.547 42.8912 210.247C40.6974 210.005 39.4629 211.858 38.6788 214.054C38.4536 214.68 38.2701 215.331 38.1033 215.966C37.9448 215.381 37.7863 214.797 37.6362 214.212C37.1941 212.484 36.7854 210.739 36.4017 208.994C37.6445 208.594 39.4796 207.817 41.1645 206.373C44.059 203.901 43.2415 200.453 40.5473 200.153C38.3535 199.911 37.119 201.764 36.3349 203.96C36.1097 204.594 35.9179 205.254 35.751 205.905C35.5008 204.636 35.2506 203.359 35.0337 202.081C34.8752 201.13 34.7251 200.186 34.5833 199.234C34.5249 197.882 34.5082 196.529 34.5249 195.177C34.5332 194.434 34.5582 193.682 34.5916 192.939C35.8261 193.332 37.6195 193.716 39.6548 193.582C43.4501 193.34 44.8597 190.076 42.8745 188.231C41.2563 186.728 39.1626 187.471 37.2191 188.757C36.3349 189.341 35.4841 190.034 34.7251 190.685C34.967 187.504 35.4257 184.348 36.1598 181.251C36.5935 179.423 37.1274 177.619 37.7613 175.858C38.9958 176.283 40.9477 176.768 43.1915 176.626C46.9868 176.383 48.3965 173.119 46.4112 171.274C44.793 169.771 42.6993 170.514 40.7558 171.8C40.0635 172.259 39.3879 172.785 38.7623 173.311C39.5046 171.591 40.3471 169.913 41.3147 168.31C43.2499 165.079 45.6855 162.182 48.5132 159.677C49.4475 160.529 51.1991 161.898 53.5597 162.675C57.1799 163.86 59.6906 161.355 58.5395 158.901C57.5969 156.906 55.3781 156.814 53.0926 157.29C52.2251 157.473 51.3493 157.732 50.5318 157.999C50.5485 157.983 50.5652 157.966 50.5819 157.957C53.6598 155.503 57.0381 153.466 60.5664 151.679C61.3005 152.639 62.8686 154.409 65.2209 155.628C68.5991 157.373 71.4852 155.311 70.7345 152.698C70.1256 150.577 67.9485 150.135 65.6213 150.235C64.7037 150.276 63.7695 150.402 62.902 150.535C66.6556 148.757 70.4926 147.071 74.1961 145.109C74.1961 145.109 74.1961 145.109 74.1961 145.1C74.2211 145.083 74.2462 145.075 74.2795 145.058C75.0469 145.726 77.1323 147.354 80.0267 148.072C83.7219 148.982 86.0408 146.302 84.7062 143.94C83.6218 142.019 81.3947 142.095 79.1592 142.737C78.5336 142.913 77.908 143.138 77.3074 143.38C79.7765 141.936 82.1787 140.375 84.4809 138.688C84.5977 138.822 84.6728 138.889 84.6728 138.889C84.6895 138.864 84.7062 138.83 84.7145 138.797C85.4485 139.44 87.5506 141.118 90.5034 141.844C94.1986 142.754 96.5175 140.074 95.1828 137.711C94.0985 135.791 91.8713 135.866 89.6359 136.509L89.6526 136.584ZM31.3301 212.225C30.5794 211.34 29.8537 210.422 29.1531 209.487C29.3282 209.337 29.5034 209.161 29.6952 208.986C30.8547 209.353 31.9724 209.512 32.9067 209.554C32.915 209.612 32.9233 209.671 32.9317 209.729L33.4405 209.629C33.6991 210.948 33.9827 212.259 34.2746 213.569C33.4405 212.668 32.4729 212.092 31.3385 212.225H31.3301ZM34.0494 180.792C33.7908 181.777 33.574 182.762 33.3654 183.756C33.3237 183.697 33.282 183.639 33.232 183.58C33.2069 181.551 33.2403 179.514 33.3237 177.494C33.3821 176.075 33.4822 174.655 33.6073 173.244C34.4331 174.104 35.2672 174.73 35.8595 175.123C35.1421 176.985 34.5332 178.88 34.0327 180.8L34.0494 180.792ZM37.4693 171.441C37.5194 171.065 37.5611 170.698 37.5778 170.331C37.5861 170.147 37.5945 169.955 37.5945 169.771C37.8948 169.679 38.195 169.571 38.5037 169.446C38.1367 170.097 37.7947 170.765 37.4693 171.441ZM41.8152 164.378C41.5482 163.752 41.0311 163.234 40.2887 162.942C38.2284 162.14 36.5601 163.61 35.2339 165.53C35.2172 165.563 35.1922 165.588 35.1755 165.622C35.1338 165.613 35.0921 165.597 35.042 165.588C34.9002 165.555 34.7584 165.547 34.6166 165.53C34.6333 165.413 34.65 165.296 34.675 165.188C35.2089 162.174 35.9095 159.193 36.802 156.263C38.0783 156.421 40.222 156.505 42.5158 155.82C43.8504 155.419 44.7847 154.701 45.3102 153.875C45.7439 155.97 46.7282 157.649 47.3705 158.567C45.3352 160.295 43.4584 162.249 41.8152 164.369V164.378Z" fill="#8BD042"/>
<path opacity="0.5" d="M89.6526 136.584C87.9343 137.077 86.2076 137.895 84.9731 138.404C85.8072 137.787 86.633 137.16 87.4421 136.509C91.1874 133.545 94.6824 130.289 98.0439 126.908C94.0985 130.698 89.9362 134.272 85.4986 137.453C86.0408 136.476 86.658 135.324 87.1001 134.163C87.8925 132.084 88.0844 129.997 86.0992 128.878C83.6635 127.509 80.7023 129.555 81.4864 133.078C82.0453 135.574 83.4133 137.478 84.1723 138.379C81.2862 140.366 78.2917 142.186 75.1721 143.773C75.072 143.823 74.9719 143.873 74.8718 143.923C75.439 142.888 76.1313 141.644 76.6151 140.383C77.4075 138.304 77.5994 136.217 75.6141 135.098C73.1785 133.729 70.2173 135.774 71.0014 139.298C71.5436 141.736 72.8782 143.622 73.6373 144.541C69.892 146.386 66.0216 147.955 62.168 149.65C61.9761 149.734 61.7926 149.817 61.6007 149.901C62.2931 149.133 63.0688 148.256 63.6944 147.329C64.9456 145.493 65.6213 143.506 63.953 141.961C61.901 140.057 58.5478 141.36 58.4894 144.967C58.4477 147.488 59.3152 149.634 59.8491 150.702C56.2873 152.397 52.8174 154.367 49.6393 156.764C49.6059 156.789 49.5726 156.814 49.5392 156.839C49.9563 156.162 50.3817 155.444 50.7153 154.718C51.6579 152.706 52.0082 150.635 50.1148 149.375C48.3881 148.223 46.2444 148.932 45.4603 150.819C45.2268 150.452 44.9015 150.126 44.4594 149.867C42.5492 148.765 40.6724 149.959 39.0709 151.646C38.6538 152.088 38.2534 152.556 37.8781 153.032C39.1293 149.584 40.6724 146.252 42.5409 143.088C43.717 143.606 45.7523 144.299 48.1462 144.29C51.9499 144.282 53.5514 141.118 51.6913 139.147C50.1732 137.544 48.0378 138.162 46.0192 139.323C45.3519 139.707 44.7013 140.149 44.0923 140.592C46.0275 137.686 48.213 134.94 50.657 132.427C51.6079 133.195 53.5264 134.53 56.0705 135.157C59.7657 136.067 62.0845 133.387 60.7499 131.024C59.6656 129.104 57.4384 129.179 55.203 129.822C54.1353 130.131 53.0592 130.565 52.1 130.965C53.1093 129.989 54.152 129.037 55.2113 128.11C56.6043 126.925 58.0307 125.772 59.4904 124.662C60.4663 125.439 62.3431 126.716 64.8205 127.325C68.5157 128.235 70.8346 125.555 69.5 123.193C68.4156 121.272 66.1885 121.348 63.953 121.99C63.4275 122.141 62.9103 122.324 62.3932 122.516C64.32 121.139 66.2802 119.795 68.2404 118.459C68.8493 118.041 69.4499 117.632 70.0588 117.215C70.918 117.941 72.9366 119.427 75.6642 120.104C79.3594 121.014 81.6783 118.334 80.3437 115.971C79.2593 114.051 77.0322 114.126 74.7967 114.769C73.9209 115.019 73.0367 115.361 72.2192 115.695C72.5946 115.428 72.9699 115.161 73.337 114.886C74.021 114.385 74.7049 113.884 75.3806 113.366C76.2231 112.74 77.0071 112.039 77.8162 111.379C78.2834 111.003 78.7255 110.611 79.1675 110.218C80.01 110.936 82.0453 112.456 84.8063 113.132C88.5015 114.042 90.8203 111.362 89.4857 109C88.4014 107.079 86.1742 107.154 83.9388 107.797C82.6625 108.165 81.3863 108.707 80.302 109.175C81.8117 107.772 83.2715 106.311 84.6478 104.792C84.7395 104.692 84.8313 104.583 84.923 104.474C85.5153 103.815 86.1075 103.147 86.6747 102.454C87.3337 101.661 87.976 100.843 88.5932 100.016C91.0539 96.6432 93.2977 93.0698 94.7991 89.1709C93.2226 93.0448 90.9121 96.5597 88.3847 99.8575C85.8239 103.147 82.9378 106.161 79.8265 108.916C79.7181 109.016 79.5929 109.108 79.4845 109.208C80.0767 108.123 80.8608 106.754 81.3863 105.376C82.1787 103.297 82.3706 101.21 80.3854 100.091C77.9497 98.722 74.9885 100.768 75.7726 104.291C76.3982 107.088 78.0415 109.141 78.7004 109.876C78.4585 110.085 78.2083 110.302 77.9664 110.511C77.6744 110.753 77.3825 110.995 77.0906 111.229C76.5984 111.621 76.1063 111.997 75.6058 112.372C75.3389 112.573 75.072 112.782 74.805 112.982C74.096 113.508 73.3703 114.017 72.6446 114.527C72.3026 114.769 71.9523 114.994 71.6103 115.236C71.2183 115.503 70.8262 115.77 70.4258 116.038C71.0014 114.977 71.7438 113.675 72.2443 112.356C73.0367 110.277 73.2285 108.19 71.2433 107.079C68.8076 105.71 65.8465 107.756 66.6306 111.279C67.2144 113.892 68.6992 115.862 69.4249 116.706C69.1329 116.898 68.841 117.09 68.5491 117.282C67.4647 117.991 66.3803 118.701 65.2959 119.411C65.0874 119.553 64.8705 119.686 64.662 119.828C64.0531 120.229 63.4525 120.63 62.8519 121.039C62.5934 121.214 62.3264 121.389 62.0679 121.565C61.2254 122.141 60.3829 122.725 59.5488 123.326C60.1327 122.258 60.8917 120.922 61.4006 119.586C62.193 117.507 62.3848 115.42 60.3996 114.301C57.9639 112.932 55.0028 114.977 55.7869 118.501C56.3874 121.189 57.9389 123.193 58.6396 123.994C57.2216 125.038 55.8286 126.106 54.4606 127.225C53.468 128.06 52.492 128.912 51.5328 129.797C51.9332 129.045 52.3336 128.227 52.6505 127.417C53.443 125.338 53.6348 123.251 51.6496 122.141C49.2139 120.771 46.2527 122.817 47.0368 126.34C47.579 128.778 48.9136 130.665 49.6727 131.583C46.9701 134.263 44.5428 137.219 42.4074 140.375C42.6326 139.49 42.8495 138.538 42.9579 137.603C43.2248 135.399 42.9079 133.328 40.7141 132.719C38.0199 131.976 35.6426 134.681 37.2525 137.912C38.3869 140.183 40.1636 141.694 41.1228 142.395C39.0125 145.818 37.2775 149.458 35.8845 153.224C35.8428 152.447 35.7844 151.637 35.6509 150.861C35.2839 148.674 34.3914 146.77 32.1142 146.812C29.3199 146.862 27.8018 150.135 30.2625 152.773C31.8556 154.484 33.7825 155.419 34.9586 155.87C34.0077 158.792 33.2403 161.773 32.6397 164.779C32.548 165.254 32.4646 165.73 32.3811 166.206C32.2811 166.29 32.181 166.39 32.0892 166.49C31.9891 166.073 31.8723 165.664 31.7389 165.263C31.0382 163.15 29.8621 161.414 27.6266 161.806C24.874 162.291 23.8814 165.755 26.7174 167.985C28.4357 169.337 30.3542 169.972 31.5971 170.264C31.6304 170.339 31.6638 170.422 31.6972 170.498C31.3885 172.768 31.1633 175.039 31.0215 177.327C30.9131 179.038 30.8547 180.75 30.8213 182.462C28.4357 182.462 26.7508 185.075 28.394 187.922C29.1614 189.241 30.1373 190.268 31.0215 191.027C31.2217 194.242 31.5387 197.456 31.9641 200.645C31.3218 200.044 30.4126 199.785 29.4116 200.053C27.9102 200.462 27.2346 201.664 26.9927 203.158C26.4672 203.734 26.1919 204.461 26.2002 205.212C25.0825 203.551 24.0232 201.839 23.0055 200.111C24.0065 199.335 25.6414 197.849 26.8092 195.669C28.6025 192.313 26.5839 189.399 23.9648 190.109C21.8377 190.685 21.3623 192.864 21.429 195.194C21.454 196.079 21.5625 196.98 21.6793 197.832C21.3122 197.189 20.9452 196.538 20.5782 195.887C19.6607 194.242 18.8682 192.547 18.0091 190.877C17.7922 190.468 17.6004 190.051 17.4168 189.633C18.5513 189.057 20.4281 187.905 21.9795 185.985C24.3735 183.021 22.9305 179.781 20.2279 179.99C18.0258 180.157 17.1583 182.211 16.7829 184.507C16.6244 185.517 16.5577 186.569 16.516 187.538L15.7319 185.718C14.0553 181.618 12.704 177.385 11.6196 173.086C12.7123 172.702 14.9645 171.733 16.908 169.771C19.5856 167.066 18.4762 163.693 15.7653 163.626C13.5632 163.576 12.4871 165.522 11.8866 167.776C11.5612 169.003 11.3777 170.314 11.2193 171.449C10.6354 168.978 10.1349 166.482 9.72616 163.977C9.43421 162.416 9.25905 160.846 9.05886 159.277C10.0765 159.085 12.6206 158.45 14.9562 156.63C17.959 154.292 17.2917 150.811 14.6142 150.393C12.4371 150.059 11.1192 151.846 10.235 154.008C9.65943 155.419 9.25905 156.972 8.93374 158.2C8.76691 156.38 8.57506 154.551 8.49165 152.723C8.29146 148.949 8.23307 145.159 8.53335 141.385C8.10795 145.15 8.0579 148.949 8.14131 152.739C8.16634 154.484 8.29146 156.229 8.39989 157.966C7.94946 156.906 7.41562 155.636 6.74831 154.518C5.6139 152.606 4.09578 151.161 1.98543 152.03C-0.600377 153.098 -0.825593 156.688 2.41918 158.258C4.92157 159.46 7.47401 159.477 8.52501 159.419C8.67516 160.971 8.80028 162.533 9.04217 164.077C9.36748 166.532 9.78455 168.986 10.2767 171.416C9.75953 170.539 9.16729 169.579 8.49999 168.736C7.12367 166.991 5.43039 165.755 3.46184 166.882C1.03452 168.277 1.27642 171.867 4.69635 173.002C7.17372 173.82 9.55933 173.595 10.6938 173.403C11.653 177.744 12.8792 182.036 14.439 186.21L14.9395 187.462C14.4974 186.886 14.0219 186.302 13.5131 185.784C11.97 184.19 10.1599 183.129 8.30814 184.449C6.03096 186.077 6.63154 189.625 10.1516 190.41C12.6039 190.952 14.8727 190.543 16.0322 190.243C16.199 190.677 16.3825 191.103 16.5911 191.512C17.4085 193.232 18.1676 194.993 19.0434 196.68C19.2936 197.164 19.5522 197.64 19.8025 198.124C19.3687 197.748 18.9183 197.381 18.4512 197.055C16.6328 195.778 14.6642 195.068 13.0877 196.721C11.1525 198.75 12.4121 202.123 16.0155 202.232C18.276 202.298 20.2529 201.631 21.4123 201.121C22.4383 202.991 23.506 204.837 24.6571 206.648C25.0825 207.341 25.5246 208.026 25.975 208.71C25.3327 208.126 24.6321 207.517 23.9064 207.007C22.088 205.73 20.1194 205.029 18.5429 206.673C16.6077 208.702 17.8673 212.075 21.4707 212.184C24.1399 212.267 26.4171 211.315 27.4097 210.814C28.002 211.658 28.6192 212.484 29.2615 213.294C27.9186 214.855 28.3523 217.493 31.0799 218.662C32.5813 219.305 34.0828 219.531 35.2839 219.589C35.4508 219.723 35.6259 219.856 35.8011 219.981L35.8928 220.048C37.6028 226.502 39.6715 232.855 42.0154 239.1C43.0163 241.764 44.0923 244.394 45.2017 247.024H35.2005V286.539H65.7881V247.024H49.3974C48.0044 243.976 46.6615 240.895 45.4103 237.781C43.3667 232.672 41.5149 227.479 39.905 222.211C39.9134 222.211 39.9217 222.211 39.9384 222.219C40.2303 222.286 40.4806 222.378 40.7975 222.419C41.1312 222.461 41.3397 222.52 41.9236 222.469L41.4899 219.723C41.4899 219.723 41.5232 219.723 41.5399 219.723H41.5065H41.4231L41.1896 219.698C41.0394 219.698 40.8392 219.622 40.6641 219.589C40.2971 219.472 39.9217 219.364 39.538 219.172L39.1042 218.971C40.3221 218.537 41.9737 217.777 43.5085 216.467C46.4029 213.995 45.5854 210.547 42.8912 210.247C40.6974 210.005 39.4629 211.858 38.6788 214.054C38.4536 214.68 38.2701 215.331 38.1033 215.966C37.9448 215.381 37.7863 214.797 37.6362 214.212C37.1941 212.484 36.7854 210.739 36.4017 208.994C37.6445 208.594 39.4796 207.817 41.1645 206.373C44.059 203.901 43.2415 200.453 40.5473 200.153C38.3535 199.911 37.119 201.764 36.3349 203.96C36.1097 204.594 35.9179 205.254 35.751 205.905C35.5008 204.636 35.2506 203.359 35.0337 202.081C34.8752 201.13 34.7251 200.186 34.5833 199.234C34.5249 197.882 34.5082 196.529 34.5249 195.177C34.5332 194.434 34.5582 193.682 34.5916 192.939C35.8261 193.332 37.6195 193.716 39.6548 193.582C43.4501 193.34 44.8597 190.076 42.8745 188.231C41.2563 186.728 39.1626 187.471 37.2191 188.757C36.3349 189.341 35.4841 190.034 34.7251 190.685C34.967 187.504 35.4257 184.348 36.1598 181.251C36.5935 179.423 37.1274 177.619 37.7613 175.858C38.9958 176.283 40.9477 176.768 43.1915 176.626C46.9868 176.383 48.3965 173.119 46.4112 171.274C44.793 169.771 42.6993 170.514 40.7558 171.8C40.0635 172.259 39.3879 172.785 38.7623 173.311C39.5046 171.591 40.3471 169.913 41.3147 168.31C43.2499 165.079 45.6855 162.182 48.5132 159.677C49.4475 160.529 51.1991 161.898 53.5597 162.675C57.1799 163.86 59.6906 161.355 58.5395 158.901C57.5969 156.906 55.3781 156.814 53.0926 157.29C52.2251 157.473 51.3493 157.732 50.5318 157.999C50.5485 157.983 50.5652 157.966 50.5819 157.957C53.6598 155.503 57.0381 153.466 60.5664 151.679C61.3005 152.639 62.8686 154.409 65.2209 155.628C68.5991 157.373 71.4852 155.311 70.7345 152.698C70.1256 150.577 67.9485 150.135 65.6213 150.235C64.7037 150.276 63.7695 150.402 62.902 150.535C66.6556 148.757 70.4926 147.071 74.1961 145.109C74.1961 145.109 74.1961 145.109 74.1961 145.1C74.2211 145.083 74.2462 145.075 74.2795 145.058C75.0469 145.726 77.1323 147.354 80.0267 148.072C83.7219 148.982 86.0408 146.302 84.7062 143.94C83.6218 142.019 81.3947 142.095 79.1592 142.737C78.5336 142.913 77.908 143.138 77.3074 143.38C79.7765 141.936 82.1787 140.375 84.4809 138.688C84.5977 138.822 84.6728 138.889 84.6728 138.889C84.6895 138.864 84.7062 138.83 84.7145 138.797C85.4485 139.44 87.5506 141.118 90.5034 141.844C94.1986 142.754 96.5175 140.074 95.1828 137.711C94.0985 135.791 91.8713 135.866 89.6359 136.509L89.6526 136.584ZM31.3301 212.225C30.5794 211.34 29.8537 210.422 29.1531 209.487C29.3282 209.337 29.5034 209.161 29.6952 208.986C30.8547 209.353 31.9724 209.512 32.9067 209.554C32.915 209.612 32.9233 209.671 32.9317 209.729L33.4405 209.629C33.6991 210.948 33.9827 212.259 34.2746 213.569C33.4405 212.668 32.4729 212.092 31.3385 212.225H31.3301ZM34.0494 180.792C33.7908 181.777 33.574 182.762 33.3654 183.756C33.3237 183.697 33.282 183.639 33.232 183.58C33.2069 181.551 33.2403 179.514 33.3237 177.494C33.3821 176.075 33.4822 174.655 33.6073 173.244C34.4331 174.104 35.2672 174.73 35.8595 175.123C35.1421 176.985 34.5332 178.88 34.0327 180.8L34.0494 180.792ZM37.4693 171.441C37.5194 171.065 37.5611 170.698 37.5778 170.331C37.5861 170.147 37.5945 169.955 37.5945 169.771C37.8948 169.679 38.195 169.571 38.5037 169.446C38.1367 170.097 37.7947 170.765 37.4693 171.441ZM41.8152 164.378C41.5482 163.752 41.0311 163.234 40.2887 162.942C38.2284 162.14 36.5601 163.61 35.2339 165.53C35.2172 165.563 35.1922 165.588 35.1755 165.622C35.1338 165.613 35.0921 165.597 35.042 165.588C34.9002 165.555 34.7584 165.547 34.6166 165.53C34.6333 165.413 34.65 165.296 34.675 165.188C35.2089 162.174 35.9095 159.193 36.802 156.263C38.0783 156.421 40.222 156.505 42.5158 155.82C43.8504 155.419 44.7847 154.701 45.3102 153.875C45.7439 155.97 46.7282 157.649 47.3705 158.567C45.3352 160.295 43.4584 162.249 41.8152 164.369V164.378Z" fill="white"/>
<path d="M295.324 250.197C295.324 250.197 291.287 241.18 290.353 240.245C289.418 239.31 281.653 236.513 279.476 229.358C277.299 222.203 273.261 203.234 283.513 204.478C293.764 205.722 291.279 225.626 295.007 225.008C298.736 224.39 291.896 192.656 298.427 188.306C304.95 183.948 315.518 187.997 314.276 204.795C313.033 221.593 310.547 231.236 312.724 230.301C314.901 229.366 321.115 225.943 321.115 233.098C321.115 240.253 315.21 245.229 311.79 245.538C308.37 245.847 306.818 246.164 306.818 246.164V250.831L295.324 250.205V250.197Z" fill="#2B3135" stroke="#2B3135" stroke-linecap="round" stroke-linejoin="round"/>
<path d="M292.038 232.706C289.694 230.485 287.533 228.323 286.549 226.352C284.572 222.403 283.096 211.291 283.096 211.291" stroke="white" stroke-width="0.5" stroke-linecap="round" stroke-linejoin="round"/>
<path d="M279.601 216.734C281.152 223.196 281.369 228.081 286.057 233.758C288.593 236.83 295.182 239.435 295.925 242.148C296.667 244.862 297.401 252.025 297.401 252.025L301.104 252.276C301.104 252.276 301.864 245.847 299.736 241.263" stroke="white" stroke-width="0.5" stroke-linecap="round" stroke-linejoin="round"/>
<path d="M280.626 206.356C280.626 206.356 277.866 208.485 278.85 213.729" stroke="white" stroke-width="0.5" stroke-linecap="round" stroke-linejoin="round"/>
<path d="M298.369 225.45L296.909 227.83" stroke="white" stroke-width="0.5" stroke-linecap="round" stroke-linejoin="round"/>
<path d="M298.877 224.624L298.369 225.45" stroke="white" stroke-width="0.5" stroke-linecap="round" stroke-linejoin="round"/>
<path d="M303.816 189.074C303.816 189.074 298.144 188.824 298.144 194.259C298.144 198.842 299.545 214.488 299.245 221.643" stroke="white" stroke-width="0.5" stroke-linecap="round" stroke-linejoin="round"/>
<path d="M308.228 233.524C308.086 235.386 308.003 236.705 308.003 237.214C308.003 239.927 314.91 229.558 318.113 229.316C318.113 229.316 321.316 229.065 320.089 234.993C318.855 240.921 314.167 243.634 311.456 244.377C308.745 245.12 306.527 243.885 306.034 245.12C305.542 246.356 305.292 249.562 305.292 249.562" stroke="white" stroke-width="0.5" stroke-linecap="round" stroke-linejoin="round"/>
<path d="M309.871 194.226C310.23 195.612 310.472 197.407 310.472 199.694C310.472 205.472 309.371 219.105 308.637 228.297" stroke="white" stroke-width="0.5" stroke-linecap="round" stroke-linejoin="round"/>
<path d="M307.019 189.566C307.019 189.566 307.878 189.934 308.745 191.386" stroke="white" stroke-width="0.5" stroke-linecap="round" stroke-linejoin="round"/>
<path d="M303.006 232.029L302.823 235.486" stroke="white" stroke-width="0.5" stroke-linecap="round" stroke-linejoin="round"/>
<path d="M304.307 192.53C304.307 192.53 302.831 193.023 303.323 198.208C303.732 202.491 303.298 221.935 303.131 228.564" stroke="white" stroke-width="0.5" stroke-linecap="round" stroke-linejoin="round"/>
<path d="M319.848 230.794C319.848 230.794 316.886 236.964 310.23 239.677C303.574 242.391 303.323 241.155 303.323 243.877C303.323 246.598 303.073 251.533 303.073 251.533" stroke="white" stroke-width="0.5" stroke-linecap="round" stroke-linejoin="round"/>
<path d="M310.589 286.598H289.043L284.422 255.348H315.21L310.589 286.598Z" fill="#8BD042" stroke="#2B3135" stroke-linecap="round" stroke-linejoin="round"/>
<path d="M317.854 250.422H281.786V258.787H317.854V250.422Z" fill="#8BD042" stroke="#2B3135" stroke-linecap="round" stroke-linejoin="round"/>
<path d="M192.251 265.558V248.593H142.336V265.558C142.336 271.093 140.468 276.47 137.031 280.803L134.846 283.566H199.741L197.556 280.803C194.119 276.461 192.251 271.093 192.251 265.558Z" fill="white" stroke="#2B3135" stroke-linecap="round" stroke-linejoin="round"/>
<g style="mix-blend-mode:multiply">
<path d="M139.267 277.438H195.312C193.31 273.823 192.251 269.732 192.251 265.558V248.593H142.336V265.558C142.336 269.732 141.269 273.823 139.275 277.438H139.267Z" fill="#8BD042"/>
</g>
<path d="M260.524 103.339H74.0544C70.1478 103.339 66.981 106.509 66.981 110.419V246.865C66.981 250.775 70.1478 253.945 74.0544 253.945H260.524C264.431 253.945 267.598 250.775 267.598 246.865V110.419C267.598 106.509 264.431 103.339 260.524 103.339Z" fill="#2B3135" stroke="#2B3135" stroke-linecap="round" stroke-linejoin="round"/>
<path d="M66.981 230.534H267.598V246.856C267.598 250.764 264.428 253.936 260.524 253.936H74.0627C70.159 253.936 66.9893 250.764 66.9893 246.856V230.534H66.981Z" fill="white" stroke="#2B3135" stroke-linecap="round" stroke-linejoin="round"/>
<path d="M257.513 112.706H77.0737V219.104H257.513V112.706Z" fill="white" stroke="#2B3135" stroke-linecap="round" stroke-linejoin="round"/>
<path d="M170.989 242.239C170.989 240.194 169.329 238.532 167.285 238.532C165.241 238.532 163.582 240.194 163.582 242.239C163.582 244.285 165.241 245.946 167.285 245.946C169.329 245.946 170.989 244.285 170.989 242.239Z" fill="#2B3135" stroke="#2B3135" stroke-linecap="round" stroke-linejoin="round"/>
<path d="M199.749 283.566H134.846V286.597H199.749V283.566Z" fill="white" stroke="#2B3135" stroke-linecap="round" stroke-linejoin="round"/>
<path d="M255.82 120.212H78.4922V129.538H255.82V120.212Z" fill="white" stroke="#2B3135" stroke-linecap="round" stroke-linejoin="round"/>
<path d="M107.745 129.538L105.626 123.777H78.4922V129.538V137.177V214.58H255.82V129.538H107.745Z" fill="#8BD042" stroke="#2B3135" stroke-linecap="round" stroke-linejoin="round"/>
<path d="M126.221 171.699H209.367" stroke="#2B3135" stroke-width="2" stroke-linecap="round" stroke-linejoin="round"/>
<path d="M126.221 179.89H209.367" stroke="#2B3135" stroke-width="2" stroke-linecap="round" stroke-linejoin="round"/>
<path d="M126.221 188.071H209.367" stroke="#2B3135" stroke-width="2" stroke-linecap="round" stroke-linejoin="round"/>
<path d="M126.221 196.262H209.367" stroke="#2B3135" stroke-width="2" stroke-linecap="round" stroke-linejoin="round"/>
<path d="M204.963 149.892H129.616C126.346 149.892 123.702 147.246 123.702 143.973C123.702 140.7 126.346 138.054 129.616 138.054H204.963C208.232 138.054 210.877 140.7 210.877 143.973C210.877 147.246 208.232 149.892 204.963 149.892Z" fill="white" stroke="#2B3135" stroke-linecap="round" stroke-linejoin="round"/>
<path d="M204.963 149.892H194.678V138.054H204.963C208.232 138.054 210.877 140.7 210.877 143.973C210.877 147.246 208.232 149.892 204.963 149.892Z" fill="#2B3135" stroke="#2B3135" stroke-linecap="round" stroke-linejoin="round"/>
<path d="M202.677 139.548C201.309 138.262 199.157 138.338 197.881 139.707C196.596 141.076 196.671 143.23 198.039 144.507C199.407 145.793 201.559 145.718 202.836 144.349C204.12 142.979 204.045 140.825 202.677 139.548ZM202.343 143.898C201.317 145 199.591 145.05 198.49 144.023C197.389 142.996 197.339 141.268 198.365 140.166C199.391 139.064 201.117 139.014 202.218 140.041C203.319 141.068 203.369 142.796 202.343 143.898Z" fill="white"/>
<path d="M205.229 145.592C205.071 145.442 204.846 145.409 204.654 145.475L203.428 144.323C203.294 144.198 203.086 144.206 202.96 144.34L202.852 144.457C202.727 144.59 202.735 144.799 202.869 144.924L204.078 146.06C204.003 146.269 204.053 146.502 204.22 146.661L206.297 148.706C206.589 148.982 207.056 148.965 207.331 148.673C207.607 148.381 207.59 147.913 207.298 147.638L205.221 145.592H205.229Z" fill="white"/>
<path d="M226.767 185.576C227.259 186.803 228.227 187.763 229.444 188.264C230.387 188.648 231.638 188.565 233.098 189.383C236.376 191.228 244.559 189.592 250.489 190.201C256.42 190.819 264.403 184.265 264.403 184.265L287.934 185.543V162.191C287.934 162.191 263.377 163.218 258.055 161.164C252.733 159.118 246.803 154.81 244.142 155.019C241.481 155.228 219.585 157.682 219.585 157.682L226.75 185.534L226.767 185.568V185.576Z" fill="white" stroke="#2B3135" stroke-linecap="round" stroke-linejoin="round"/>
<path d="M220.703 91.3423C207.14 92.8451 197.356 105.076 198.866 118.652C200.367 132.227 212.587 142.02 226.15 140.509C239.713 139.006 249.497 126.775 247.988 113.2C246.486 99.6244 234.266 89.8312 220.703 91.3423ZM225.608 135.658C214.722 136.869 204.921 129.013 203.712 118.117C202.502 107.222 210.352 97.412 221.237 96.2014C232.122 94.9908 241.923 102.847 243.133 113.742C244.342 124.638 236.493 134.448 225.608 135.658Z" fill="white" stroke="#2B3135" stroke-linecap="round" stroke-linejoin="round"/>
<path d="M220.544 89.9312C206.981 91.434 197.197 103.665 198.707 117.24C200.208 130.816 212.428 140.609 225.991 139.098C239.554 137.595 249.339 125.364 247.829 111.789C246.327 98.2133 234.107 88.42 220.544 89.9312ZM225.449 134.247C214.564 135.458 204.763 127.601 203.553 116.706C202.344 105.811 210.193 96.0008 221.078 94.7902C231.964 93.5796 241.765 101.436 242.974 112.331C244.184 123.227 236.335 133.037 225.449 134.247Z" fill="white" stroke="#2B3135" stroke-linecap="round" stroke-linejoin="round"/>
<path d="M225.625 139.697L226.786 139.569C228.104 139.422 229.292 140.374 229.438 141.694L231.334 158.829C231.48 160.149 230.529 161.338 229.211 161.484L228.051 161.613C226.732 161.759 225.544 160.807 225.398 159.487L223.502 142.352C223.356 141.032 224.307 139.843 225.625 139.697Z" fill="#8BD042" stroke="#2B3135" stroke-linecap="round" stroke-linejoin="round"/>
<path d="M226.413 153.874L228.867 153.602C231.122 153.352 233.157 154.984 233.406 157.241L237.151 191.139C237.47 194.027 235.391 196.626 232.505 196.945L232.34 196.964C229.454 197.283 226.858 195.202 226.539 192.314L222.794 158.415C222.544 156.158 224.174 154.121 226.429 153.872L226.413 153.874Z" fill="#2B3135" stroke="#2B3135" stroke-linecap="round" stroke-linejoin="round"/>
<path d="M230.053 182.12C230.053 182.12 224.131 182.346 223.297 183.364C222.463 184.383 222.613 187.964 224.223 188.39C228.327 189.475 237.052 188.841 237.385 188.106C237.719 187.372 238.436 183.105 236.626 182.638C234.816 182.17 230.053 182.12 230.053 182.12Z" fill="white" stroke="#2B3135" stroke-linecap="round" stroke-linejoin="round"/>
<path d="M228.344 173.846C228.344 173.846 221.445 173.579 220.369 174.831C219.293 176.075 219.085 180.726 220.903 181.427C225.541 183.214 235.976 182.512 236.451 181.594C236.918 180.676 237.961 175.908 235.917 175.14C233.874 174.372 228.352 173.855 228.352 173.855L228.344 173.846Z" fill="white" stroke="#2B3135" stroke-linecap="round" stroke-linejoin="round"/>
<path d="M227.334 164.495C227.334 164.495 219.96 164.211 218.809 165.547C217.658 166.874 217.433 171.85 219.385 172.593C224.348 174.497 235.242 174.497 235.742 173.512C236.243 172.527 237.619 166.691 235.433 165.873C233.248 165.054 227.342 164.495 227.342 164.495H227.334Z" fill="white" stroke="#2B3135" stroke-linecap="round" stroke-linejoin="round"/>
<path d="M223.097 155.746C223.097 155.746 215.723 155.462 214.572 156.798C213.421 158.134 213.146 163.243 215.148 163.844C217.15 164.446 231.004 165.748 231.505 164.763C232.005 163.778 233.382 157.942 231.196 157.124C229.011 156.297 223.105 155.746 223.105 155.746H223.097Z" fill="white" stroke="#2B3135" stroke-linecap="round" stroke-linejoin="round"/>
<path d="M247.245 180.299C245.985 179.949 244.726 179.398 243.533 178.58C237.602 174.48 237.803 165.063 237.803 165.063L236.368 164.654C234.933 164.245 233.09 162.808 233.09 162.808C233.09 162.808 233.907 166.09 233.907 168.745C233.907 171.4 231.655 172.844 229.812 173.044C227.968 173.253 227.151 173.453 226.533 170.999C225.916 168.544 222.847 158.709 222.646 157.273C222.463 155.971 224.648 153.65 228.127 153.082C233.473 153.525 238.754 155.019 244.134 155.019C245.035 155.019 247.137 155.47 249.347 156.939" fill="white"/>
<path d="M247.245 180.299C245.985 179.949 244.726 179.398 243.533 178.58C237.602 174.48 237.803 165.063 237.803 165.063L236.368 164.654C234.933 164.245 233.09 162.808 233.09 162.808C233.09 162.808 233.907 166.09 233.907 168.745C233.907 171.4 231.655 172.844 229.812 173.044C227.968 173.253 227.151 173.453 226.533 170.999C225.916 168.544 222.847 158.709 222.646 157.273C222.463 155.971 224.648 153.65 228.127 153.082C233.473 153.525 238.754 155.019 244.134 155.019C245.035 155.019 247.137 155.47 249.347 156.939" stroke="#2B3135" stroke-linecap="round" stroke-linejoin="round"/>
<path d="M252.884 180.809C252.275 180.85 251.616 180.867 250.932 180.85L252.884 180.809Z" fill="white"/>
<path d="M252.884 180.809C252.275 180.85 251.616 180.867 250.932 180.85" stroke="#2B3135" stroke-linecap="round" stroke-linejoin="round"/>
<path d="M257.246 180.008C257.246 180.008 255.428 180.625 252.884 180.809L257.246 180.008Z" fill="white"/>
<path d="M257.246 180.008C257.246 180.008 255.428 180.625 252.884 180.809" stroke="#2B3135" stroke-linecap="round" stroke-linejoin="round"/>
<path d="M264.612 177.344H271.977" stroke="#2B3135" stroke-linecap="round" stroke-linejoin="round"/>
<path d="M265.229 179.398H268.299" stroke="#2B3135" stroke-linecap="round" stroke-linejoin="round"/>
<path d="M237.803 165.055C237.803 165.055 241.873 165.038 244.543 162.625" stroke="#2B3135" stroke-linecap="round" stroke-linejoin="round"/>
<path d="M233.006 162.541C233.006 162.541 232.923 161.247 232.314 159.269" stroke="#2B3135" stroke-linecap="round" stroke-linejoin="round"/>
<path d="M226.542 169.956C226.542 169.956 225.766 167.802 226.717 167.025C227.668 166.249 230.162 165.13 230.596 165.99C231.029 166.85 231.972 170.816 231.713 171.592L231.455 172.369" stroke="#2B3135" stroke-width="0.5" stroke-linecap="round" stroke-linejoin="round"/>
<path d="M339.583 196.079H269.058V161.381H339.583" fill="#8BD042"/>
<path d="M339.583 196.079H269.058V161.381H339.583" stroke="#2B3135" stroke-linecap="round" stroke-linejoin="round"/>
<path d="M274.229 193.759C275.104 193.759 275.814 193.048 275.814 192.172C275.814 191.296 275.104 190.586 274.229 190.586C273.354 190.586 272.644 191.296 272.644 192.172C272.644 193.048 273.354 193.759 274.229 193.759Z" fill="white" stroke="#2B3135" stroke-linecap="round" stroke-linejoin="round"/>
<path d="M162.147 128.336C163.373 127.843 164.332 126.875 164.833 125.656C165.216 124.712 165.133 123.46 165.95 121.999C167.794 118.718 166.159 110.528 166.768 104.591C167.377 98.6554 160.837 90.6655 160.837 90.6655L162.113 67.1133H138.783C138.783 67.1133 139.809 91.6924 137.757 97.019C135.713 102.346 131.409 108.282 131.618 110.945C131.826 113.608 134.279 135.524 134.279 135.524L162.105 128.352L162.139 128.336H162.147Z" fill="white" stroke="#2B3135" stroke-linecap="round" stroke-linejoin="round"/>
<path d="M67.9984 134.405C69.4999 147.981 81.7199 157.774 95.2828 156.263C108.846 154.76 118.63 142.529 117.12 128.954C115.619 115.378 103.399 105.585 89.836 107.096C76.273 108.599 66.4886 120.83 67.9984 134.405ZM112.274 129.496C113.484 140.392 105.634 150.202 94.749 151.412C83.8636 152.623 74.0625 144.766 72.8531 133.871C71.6436 122.976 79.4927 113.166 90.3781 111.955C101.264 110.745 111.065 118.601 112.274 129.496Z" fill="white" stroke="#2B3135" stroke-linecap="round" stroke-linejoin="round"/>
<path d="M66.5887 134.564C68.0902 148.139 80.3102 157.932 93.8732 156.421C107.436 154.918 117.22 142.687 115.711 129.112C114.201 115.537 101.989 105.743 88.4263 107.254C74.8633 108.757 65.079 120.988 66.5887 134.564ZM110.864 129.655C112.074 140.55 104.225 150.36 93.3393 151.57C82.4539 152.781 72.6529 144.925 71.4434 134.029C70.2339 123.134 78.0831 113.324 88.9685 112.113C99.8539 110.903 109.655 118.759 110.864 129.655Z" fill="white" stroke="#2B3135" stroke-linecap="round" stroke-linejoin="round"/>
<path d="M116.312 129.47L116.183 128.309C116.037 126.989 116.988 125.8 118.306 125.654L135.427 123.756C136.745 123.61 137.933 124.562 138.079 125.882L138.207 127.043C138.353 128.363 137.402 129.552 136.084 129.698L118.964 131.596C117.646 131.742 116.458 130.79 116.312 129.47Z" fill="#8BD042" stroke="#2B3135" stroke-linecap="round" stroke-linejoin="round"/>
<path d="M130.469 128.692L130.198 126.236C129.949 123.979 131.578 121.942 133.833 121.692L167.701 117.944C170.586 117.625 173.183 119.706 173.502 122.594L173.52 122.76C173.839 125.648 171.76 128.246 168.875 128.566L135.007 132.314C132.752 132.564 130.717 130.933 130.467 128.676L130.469 128.692Z" fill="#2B3135" stroke="#2B3135" stroke-linecap="round" stroke-linejoin="round"/>
<path d="M158.693 125.055C158.693 125.055 158.919 130.982 159.936 131.817C160.954 132.652 164.532 132.502 164.958 130.891C166.042 126.783 165.408 118.05 164.674 117.716C163.94 117.374 159.678 116.664 159.211 118.476C158.743 120.288 158.693 125.055 158.693 125.055Z" fill="white" stroke="#2B3135" stroke-linecap="round" stroke-linejoin="round"/>
<path d="M150.427 126.758C150.427 126.758 150.16 133.662 151.411 134.739C152.654 135.816 157.3 136.025 158.001 134.205C159.786 129.563 159.085 119.118 158.168 118.642C157.25 118.175 152.487 117.131 151.72 119.177C150.953 121.222 150.436 126.749 150.436 126.749L150.427 126.758Z" fill="white" stroke="#2B3135" stroke-linecap="round" stroke-linejoin="round"/>
<path d="M141.085 127.769C141.085 127.769 140.801 135.149 142.136 136.301C143.47 137.453 148.433 137.679 149.176 135.725C151.078 130.757 151.078 119.854 150.093 119.353C149.109 118.852 143.279 117.474 142.461 119.662C141.635 121.849 141.085 127.76 141.085 127.76V127.769Z" fill="white" stroke="#2B3135" stroke-linecap="round" stroke-linejoin="round"/>
<path d="M132.343 132.01C132.343 132.01 132.059 139.39 133.394 140.542C134.729 141.694 139.834 141.97 140.434 139.966C141.035 137.963 142.336 124.095 141.352 123.594C140.367 123.093 134.537 121.716 133.719 123.903C132.894 126.09 132.343 132.001 132.343 132.001V132.01Z" fill="white" stroke="#2B3135" stroke-linecap="round" stroke-linejoin="round"/>
<path d="M157.384 102.179C157.575 104.909 157.275 108.482 155.148 111.555C151.053 117.491 141.644 117.29 141.644 117.29L141.235 118.726C140.826 120.162 139.391 122.007 139.391 122.007C139.391 122.007 142.67 121.189 145.322 121.189C147.975 121.189 149.418 123.443 149.618 125.288C149.818 127.134 150.027 127.952 147.574 128.57C145.122 129.187 135.296 132.26 133.861 132.46C132.56 132.644 130.241 130.456 129.674 126.975C130.116 121.623 131.609 116.338 131.609 110.953C131.609 110.052 132.059 107.948 133.528 105.735" fill="white"/>
<path d="M157.384 102.179C157.575 104.909 157.275 108.482 155.148 111.555C151.053 117.491 141.644 117.29 141.644 117.29L141.235 118.726C140.826 120.162 139.391 122.007 139.391 122.007C139.391 122.007 142.67 121.189 145.322 121.189C147.975 121.189 149.418 123.443 149.618 125.288C149.818 127.134 150.027 127.952 147.574 128.57C145.122 129.187 135.296 132.26 133.861 132.46C132.56 132.644 130.241 130.456 129.674 126.975C130.116 121.623 131.609 116.338 131.609 110.953C131.609 110.052 132.059 107.948 133.528 105.735" stroke="#2B3135" stroke-linecap="round" stroke-linejoin="round"/>
<path d="M156.583 97.8291C156.583 97.8291 156.9 98.7558 157.15 100.217L156.583 97.8291Z" fill="white"/>
<path d="M156.583 97.8291C156.583 97.8291 156.9 98.7558 157.15 100.217" stroke="#2B3135" stroke-linecap="round" stroke-linejoin="round"/>
<path d="M153.922 90.457V83.085" stroke="#2B3135" stroke-linecap="round" stroke-linejoin="round"/>
<path d="M155.966 89.8478V86.7754" stroke="#2B3135" stroke-linecap="round" stroke-linejoin="round"/>
<path d="M141.644 117.29C141.644 117.29 141.627 113.216 139.216 110.544" stroke="#2B3135" stroke-linecap="round" stroke-linejoin="round"/>
<path d="M139.133 122.091C139.133 122.091 137.84 122.174 135.863 122.783" stroke="#2B3135" stroke-linecap="round" stroke-linejoin="round"/>
<path d="M146.532 128.561C146.532 128.561 144.38 129.338 143.604 128.386C142.828 127.434 141.711 124.938 142.57 124.504C143.429 124.07 147.391 123.126 148.167 123.385L148.943 123.644" stroke="#2B3135" stroke-width="0.5" stroke-linecap="round" stroke-linejoin="round"/>
<path d="M173 -48V86H138V-48" fill="#8BD042"/>
<path d="M173 -48V86H138V-48" stroke="#2B3135" stroke-linecap="round" stroke-linejoin="round"/>
<path d="M168.728 82.4167C169.603 82.4167 170.313 81.7065 170.313 80.8304C170.313 79.9543 169.603 79.2441 168.728 79.2441C167.853 79.2441 167.143 79.9543 167.143 80.8304C167.143 81.7065 167.853 82.4167 168.728 82.4167Z" fill="white" stroke="#2B3135" stroke-linecap="round" stroke-linejoin="round"/>
<path d="M127.23 254.078C126.738 255.306 125.771 256.266 124.553 256.767C123.61 257.151 122.359 257.067 120.899 257.885C117.621 259.731 109.438 258.094 103.508 258.704C97.5769 259.321 89.5943 252.768 89.5943 252.768L66.0635 254.045V230.693C66.0635 230.693 90.6203 231.72 95.942 229.666C101.264 227.621 107.194 223.321 109.855 223.521C112.516 223.722 134.412 226.185 134.412 226.185L127.247 254.037L127.23 254.07V254.078Z" fill="white" stroke="#2B3135" stroke-linecap="round" stroke-linejoin="round"/>
<path d="M133.295 159.844C146.858 161.347 156.642 173.578 155.132 187.153C153.631 200.729 141.411 210.522 127.848 209.011C114.285 207.508 104.5 195.277 106.01 181.702C107.512 168.126 119.732 158.333 133.295 159.844ZM128.39 204.16C139.275 205.371 149.076 197.514 150.286 186.619C151.495 175.724 143.646 165.914 132.761 164.703C121.875 163.493 112.074 171.349 110.865 182.244C109.655 193.14 117.504 202.95 128.39 204.16Z" fill="white" stroke="#2B3135" stroke-linecap="round" stroke-linejoin="round"/>
<path d="M133.453 158.442C147.016 159.945 156.801 172.176 155.291 185.751C153.789 199.326 141.569 209.12 128.006 207.609C114.443 206.106 104.659 193.875 106.169 180.299C107.67 166.724 119.89 156.931 133.453 158.442ZM128.549 202.758C139.434 203.968 149.235 196.112 150.444 185.217C151.654 174.322 143.805 164.512 132.919 163.301C122.034 162.09 112.233 169.947 111.023 180.842C109.814 191.737 117.663 201.547 128.549 202.758Z" fill="white" stroke="#2B3135" stroke-linecap="round" stroke-linejoin="round"/>
<path d="M125.933 230.132L124.772 230.003C123.454 229.857 122.503 228.668 122.649 227.349L124.545 210.213C124.691 208.893 125.879 207.942 127.197 208.088L128.358 208.216C129.676 208.362 130.627 209.552 130.481 210.871L128.585 228.007C128.439 229.326 127.251 230.278 125.933 230.132Z" fill="#8BD042" stroke="#2B3135" stroke-linecap="round" stroke-linejoin="round"/>
<path d="M121.67 265.483L121.505 265.464C118.619 265.145 116.54 262.546 116.859 259.658L120.604 225.76C120.853 223.502 122.888 221.871 125.143 222.121L127.597 222.392C129.852 222.642 131.482 224.679 131.233 226.936L127.488 260.835C127.169 263.722 124.572 265.804 121.687 265.484L121.67 265.483Z" fill="#2B3135" stroke="#2B3135" stroke-linecap="round" stroke-linejoin="round"/>
<path d="M123.952 250.631C123.952 250.631 129.875 250.856 130.709 251.875C131.543 252.893 131.393 256.475 129.783 256.901C125.679 257.986 116.954 257.352 116.62 256.617C116.287 255.882 115.569 251.616 117.379 251.148C119.181 250.681 123.952 250.631 123.952 250.631Z" fill="white" stroke="#2B3135" stroke-linecap="round" stroke-linejoin="round"/>
<path d="M125.654 242.348C125.654 242.348 132.552 242.081 133.628 243.333C134.704 244.577 134.913 249.228 133.094 249.929C128.457 251.716 118.022 251.014 117.546 250.096C117.079 249.178 116.036 244.41 118.08 243.642C120.124 242.874 125.646 242.356 125.646 242.356L125.654 242.348Z" fill="white" stroke="#2B3135" stroke-linecap="round" stroke-linejoin="round"/>
<path d="M126.663 232.998C126.663 232.998 134.037 232.714 135.188 234.05C136.339 235.386 136.564 240.353 134.612 241.096C129.649 243 118.755 243 118.255 242.015C117.754 241.03 116.378 235.194 118.563 234.375C120.749 233.549 126.655 232.998 126.655 232.998H126.663Z" fill="white" stroke="#2B3135" stroke-linecap="round" stroke-linejoin="round"/>
<path d="M130.909 224.248C130.909 224.248 138.282 223.964 139.433 225.3C140.584 226.627 140.86 231.745 138.858 232.346C136.856 232.947 123.001 234.25 122.5 233.265C122 232.28 120.624 226.444 122.809 225.625C124.995 224.799 130.9 224.248 130.9 224.248H130.909Z" fill="white" stroke="#2B3135" stroke-linecap="round" stroke-linejoin="round"/>
<path d="M102.248 249.362C104.784 249.395 107.803 248.911 110.464 247.083C116.395 242.983 116.195 233.566 116.195 233.566L117.629 233.157C119.064 232.747 120.908 231.311 120.908 231.311C120.908 231.311 120.09 234.593 120.09 237.248C120.09 239.902 122.342 241.347 124.186 241.547C126.029 241.756 126.847 241.956 127.464 239.502C128.081 237.047 131.151 227.212 131.351 225.776C131.534 224.474 129.349 222.153 125.871 221.585C120.524 222.027 115.244 223.522 109.864 223.522C108.963 223.522 106.861 223.973 104.65 225.442" fill="white"/>
<path d="M102.248 249.362C104.784 249.395 107.803 248.911 110.464 247.083C116.395 242.983 116.195 233.566 116.195 233.566L117.629 233.157C119.064 232.747 120.908 231.311 120.908 231.311C120.908 231.311 120.09 234.593 120.09 237.248C120.09 239.902 122.342 241.347 124.186 241.547C126.029 241.756 126.847 241.956 127.464 239.502C128.081 237.047 131.151 227.212 131.351 225.776C131.534 224.474 129.349 222.153 125.871 221.585C120.524 222.027 115.244 223.522 109.864 223.522C108.963 223.522 106.861 223.973 104.65 225.442" stroke="#2B3135" stroke-linecap="round" stroke-linejoin="round"/>
<path d="M96.751 248.519C96.751 248.519 98.2024 249.019 100.329 249.253L96.751 248.519Z" fill="white"/>
<path d="M96.751 248.519C96.751 248.519 98.2024 249.019 100.329 249.253" stroke="#2B3135" stroke-linecap="round" stroke-linejoin="round"/>
<path d="M89.3859 245.854H82.0205" stroke="#2B3135" stroke-linecap="round" stroke-linejoin="round"/>
<path d="M88.7766 247.9H85.707" stroke="#2B3135" stroke-linecap="round" stroke-linejoin="round"/>
<path d="M116.195 233.565C116.195 233.565 112.124 233.549 109.455 231.136" stroke="#2B3135" stroke-linecap="round" stroke-linejoin="round"/>
<path d="M121 231.044C121 231.044 121.083 229.75 121.692 227.771" stroke="#2B3135" stroke-linecap="round" stroke-linejoin="round"/>
<path d="M127.456 238.458C127.456 238.458 128.231 236.304 127.28 235.527C126.329 234.751 123.835 233.632 123.402 234.492C122.968 235.352 122.025 239.318 122.284 240.094L122.542 240.871" stroke="#2B3135" stroke-width="0.5" stroke-linecap="round" stroke-linejoin="round"/>
<path d="M-20 265H85V230H-20" fill="#8BD042"/>
<path d="M-20 265H85V230H-20" stroke="#2B3135" stroke-linecap="round" stroke-linejoin="round"/>
<path d="M78.1836 260.674C78.1836 261.551 78.8926 262.26 79.7684 262.26C80.6443 262.26 81.3533 261.551 81.3533 260.674C81.3533 259.798 80.6443 259.088 79.7684 259.088C78.8926 259.088 78.1836 259.798 78.1836 260.674Z" fill="white" stroke="#2B3135" stroke-linecap="round" stroke-linejoin="round"/>
</svg>
